<?xml version="1.0" standalone="no"?>
<!DOCTYPE svg PUBLIC "-//W3C//DTD SVG 20010904//EN"
 "http://www.w3.org/TR/2001/REC-SVG-20010904/DTD/svg10.dtd">
<svg version="1.0" xmlns="http://www.w3.org/2000/svg"
 width="1920.000000pt" height="1080.000000pt" viewBox="0 0 1920.000000 1080.000000"
 preserveAspectRatio="xMidYMid meet">
<metadata>
Created by potrace 1.16, written by Peter Selinger 2001-2019
</metadata>
<g transform="translate(0.000000,1080.000000) scale(0.100000,-0.100000)"
fill="#000000" stroke="none">
<path d="M4875 10040 c-124 -13 -137 -19 -163 -73 l-22 -47 -74 0 c-68 0 -75
-2 -90 -25 -13 -20 -25 -25 -55 -25 -21 0 -58 -7 -81 -15 -23 -8 -63 -15 -89
-16 -50 -1 -48 -2 17 -19 24 -6 42 -17 42 -24 0 -8 14 -26 32 -41 24 -20 37
-25 57 -20 44 12 94 9 141 -9 69 -27 157 -18 258 28 89 40 115 42 120 9 5 -35
-74 -77 -222 -119 -51 -14 -67 -15 -112 -4 -63 15 -104 7 -104 -20 0 -37 106
-93 180 -94 50 -1 64 -21 34 -51 -37 -37 -254 -4 -254 39 0 7 -14 31 -31 52
-20 26 -28 45 -25 60 5 19 1 23 -32 29 -20 3 -65 22 -100 41 -63 34 -124 44
-138 23 -4 -7 1 -16 10 -21 27 -15 18 -28 -18 -28 -46 0 -91 -37 -82 -67 7
-23 41 -39 101 -48 50 -8 95 -25 95 -36 0 -8 -63 -29 -87 -29 -7 0 -13 -4 -13
-10 0 -5 4 -10 10 -10 5 0 16 -13 25 -30 14 -27 20 -30 63 -30 45 0 81 14 136
54 30 21 26 22 126 -42 85 -54 99 -85 43 -90 -25 -2 -39 3 -60 24 -34 34 -13
47 22 14 14 -13 33 -20 47 -18 22 3 21 4 -13 26 -43 26 -69 28 -109 7 -35 -18
-37 -26 -10 -43 11 -7 20 -21 20 -31 0 -10 -9 -21 -20 -24 -23 -6 -26 3 -8 21
19 19 -13 15 -41 -4 -37 -26 -13 -35 120 -45 68 -5 163 -14 210 -20 82 -10 88
-9 142 15 32 14 57 29 57 33 0 4 -21 7 -47 5 -54 -3 -118 23 -118 48 0 11 18
16 75 21 60 4 90 13 147 42 65 33 101 66 87 79 -2 3 -26 3 -53 0 -33 -3 -51 0
-56 8 -12 20 36 56 84 64 32 5 41 10 39 24 -3 14 5 17 42 16 25 -1 62 -5 82
-9 31 -6 40 -4 64 18 15 14 90 58 168 99 120 62 136 73 115 79 -39 11 -49 10
-43 -5 7 -17 -18 -32 -68 -41 -84 -16 -68 30 24 68 35 15 100 40 145 57 45 17
92 39 104 49 l23 18 -40 26 c-54 35 -83 41 -148 27 -64 -13 -96 -7 -96 20 0
31 -58 42 -193 38 -67 -1 -165 0 -217 4 -52 3 -131 2 -175 -2z"/>
<path d="M6851 10041 c-7 -5 -11 -13 -7 -19 3 -5 -1 -15 -9 -22 -17 -14 -57
-7 -123 22 -41 19 -51 19 -95 8 -39 -10 -54 -10 -72 0 -46 25 -109 -20 -75
-54 9 -8 17 -4 36 19 l25 30 40 -43 c22 -23 39 -50 37 -59 -5 -29 -64 -36
-189 -24 -134 14 -169 7 -169 -34 0 -37 -25 -41 -61 -11 -37 31 -45 32 -52 6
-5 -18 -14 -20 -85 -20 -43 0 -101 -3 -127 -6 l-47 -7 32 -13 c49 -21 20 -64
-33 -50 -28 7 -38 40 -14 49 9 4 9 6 -1 6 -7 1 -26 -6 -43 -15 -23 -11 -29
-20 -24 -34 9 -28 -39 -74 -68 -66 -11 3 -27 1 -33 -5 -7 -6 -31 -12 -53 -13
-44 -3 -151 -51 -151 -68 0 -7 25 -8 75 -3 91 8 102 -4 61 -66 -31 -45 -79
-79 -116 -79 -14 0 -38 -7 -54 -15 -15 -8 -47 -15 -70 -16 -52 0 -130 -30
-134 -50 -3 -18 51 -29 149 -29 63 0 109 -15 109 -36 0 -19 -26 -30 -100 -44
-86 -17 -102 -26 -61 -35 21 -4 35 -15 41 -31 13 -33 46 -38 153 -26 51 6 145
14 210 17 65 3 124 8 131 11 9 4 27 -14 49 -48 18 -29 52 -75 75 -101 23 -27
42 -54 42 -62 0 -7 16 -32 35 -55 30 -36 35 -49 35 -95 0 -67 13 -77 34 -25 9
22 20 40 25 40 19 0 61 -62 61 -90 0 -33 -21 -57 -65 -76 l-30 -13 35 -1 c41
0 98 -28 117 -57 13 -19 11 -25 -16 -56 -36 -41 -38 -48 -11 -65 29 -18 25
-29 -18 -51 -42 -21 -73 -51 -53 -51 6 0 23 7 36 16 44 29 61 -7 25 -53 -11
-14 -17 -30 -14 -35 3 -5 -4 -20 -16 -33 -16 -17 -19 -28 -12 -42 5 -10 7 -25
4 -33 -4 -12 -2 -13 9 -2 16 15 59 16 59 1 0 -6 -5 -19 -10 -30 -14 -26 12
-84 75 -167 49 -65 114 -112 156 -112 33 0 69 -27 69 -51 0 -26 14 -24 66 11
55 39 64 55 64 125 0 42 5 64 20 82 11 14 20 33 20 43 0 46 173 209 208 195
23 -9 88 13 121 41 18 15 35 43 43 71 11 37 19 48 41 54 15 4 41 19 57 33 35
29 56 33 201 40 84 4 119 10 167 30 34 14 91 34 129 44 l67 19 -75 11 c-41 6
-85 9 -97 5 -28 -7 -72 4 -72 19 0 6 11 21 25 34 14 13 25 32 25 43 0 48 96
55 117 10 21 -43 41 -55 59 -37 14 14 14 19 1 44 -24 46 -84 74 -156 74 -47 0
-63 4 -68 16 -3 8 -1 20 6 27 19 19 12 36 -20 52 -19 10 -29 22 -27 33 3 14
15 17 63 17 59 0 60 1 65 30 5 27 9 30 40 29 23 -1 57 -16 99 -42 35 -23 73
-42 85 -42 18 0 17 3 -12 29 -17 17 -32 34 -32 40 0 17 36 31 79 31 45 0 52 9
21 28 -11 7 -20 18 -20 26 0 8 -19 18 -44 25 -25 6 -48 16 -51 21 -11 18 16
40 59 47 l41 7 -54 7 c-29 4 -60 14 -68 22 -14 13 -12 17 13 34 22 14 45 18
102 16 63 -1 72 0 61 13 -6 8 -19 12 -29 9 -26 -8 -70 32 -70 64 0 15 -5 32
-11 38 -18 18 -3 41 35 60 21 9 39 27 45 43 5 15 19 37 31 48 l22 20 -48 -1
c-38 -2 -49 2 -52 15 -5 27 41 49 120 57 61 5 77 11 100 34 15 15 35 27 44 27
9 0 44 12 77 27 l61 28 -39 7 c-68 12 -141 9 -181 -8 -29 -12 -57 -15 -113
-11 -53 4 -85 2 -109 -9 -19 -8 -48 -14 -64 -14 -27 0 -30 3 -26 24 4 22 1 25
-32 31 -77 13 -234 -12 -358 -58 -137 -52 -165 -59 -186 -51 -35 13 -14 36 67
74 126 59 231 91 336 101 111 11 176 24 211 44 23 13 17 14 -61 8 -129 -9
-162 5 -121 50 17 20 16 20 -83 13 -55 -3 -170 -15 -254 -26 -134 -18 -157
-18 -169 -6 -12 12 -11 16 13 32 15 10 48 23 73 29 44 11 43 12 -69 18 -154 9
-241 8 -258 -2z"/>
<path d="M13613 9730 c-29 -17 -53 -35 -53 -40 0 -5 11 -17 25 -26 51 -33 204
0 189 41 -8 19 -66 55 -90 55 -11 0 -43 -14 -71 -30z"/>
<path d="M11393 9726 c-28 -25 -28 -25 -10 -53 10 -15 21 -35 23 -44 3 -9 21
-23 39 -32 28 -13 35 -14 45 -2 13 16 -5 31 -32 27 -9 -2 -19 2 -22 7 -8 12
28 36 67 45 23 5 29 2 37 -18 13 -34 27 -40 55 -22 20 13 29 14 43 5 38 -24
103 14 74 43 -8 8 -20 7 -43 -2 -30 -13 -33 -12 -47 8 -8 12 -24 22 -36 22
-12 0 -27 5 -34 12 -9 9 -15 9 -24 0 -17 -17 -36 -15 -65 8 -32 25 -36 25 -70
-4z"/>
<path d="M10026 9642 c-4 -11 -18 -29 -31 -42 -25 -23 -25 -23 -25 -2 0 27
-23 39 -88 48 -57 7 -60 5 -36 -31 14 -22 14 -25 -15 -57 l-30 -33 -35 34
c-42 41 -77 43 -115 7 -28 -27 -84 -36 -97 -15 -3 6 6 22 22 36 l29 24 -50 -5
c-53 -5 -105 -23 -105 -37 0 -5 13 -6 29 -3 54 11 48 -40 -10 -75 -29 -18 -29
-18 -10 -35 21 -19 46 -13 37 10 -8 20 7 17 37 -6 32 -25 39 -25 85 4 45 29
82 38 102 26 21 -13 3 -40 -43 -65 -45 -24 -47 -35 -8 -35 17 0 33 -4 36 -10
8 -13 -40 -60 -62 -60 -11 -1 -5 -8 18 -20 19 -10 41 -26 48 -34 22 -27 41
-18 61 29 29 69 86 153 108 159 12 4 34 -1 54 -14 35 -21 58 -26 58 -12 0 5
-18 16 -40 25 -24 9 -40 22 -40 32 0 9 -15 22 -35 31 -38 15 -42 23 -23 42 16
16 61 15 153 -4 42 -9 88 -13 101 -10 29 8 137 77 130 84 -9 8 -130 31 -168
32 -27 0 -38 -5 -42 -18z"/>
<path d="M13605 9596 c-68 -33 -69 -34 -40 -41 130 -31 221 -58 257 -76 40
-20 42 -20 55 -3 16 22 17 130 1 140 -6 4 -25 -8 -46 -31 -26 -29 -36 -34 -43
-24 -5 8 -9 19 -9 25 0 21 -37 44 -71 44 -19 0 -66 -15 -104 -34z"/>
<path d="M3583 9532 c15 -15 27 -33 27 -40 0 -7 16 -12 43 -12 35 0 55 -9 107
-45 87 -62 109 -61 70 3 -36 58 -163 122 -244 122 l-30 0 27 -28z"/>
<path d="M14006 9519 c-23 -18 -86 -100 -86 -112 0 -2 44 6 98 19 53 13 109
26 125 29 39 8 33 30 -16 60 -53 30 -86 32 -121 4z"/>
<path d="M14095 9371 c-30 -13 -76 -66 -76 -87 0 -10 2 -30 3 -44 3 -24 1 -25
-57 -26 -37 0 -87 -10 -127 -25 -59 -21 -72 -22 -111 -12 -34 10 -56 9 -108
-2 -35 -8 -100 -20 -144 -26 -169 -23 -255 -51 -255 -82 0 -8 12 -23 26 -36
31 -27 30 -67 -1 -63 -100 13 -251 19 -271 12 -41 -16 -23 -90 21 -90 26 0 85
-61 96 -99 17 -57 9 -85 -25 -89 -35 -4 -46 10 -46 61 0 36 -2 39 -55 63 -71
33 -120 40 -150 24 -21 -12 -28 -11 -45 5 -17 15 -20 16 -20 3 0 -9 21 -34 47
-55 49 -42 51 -63 7 -63 -53 0 -111 48 -139 114 -16 37 -17 38 -28 19 -7 -11
-21 -32 -31 -47 -17 -25 -18 -32 -6 -84 24 -109 22 -106 75 -115 76 -13 134
-61 154 -129 7 -22 20 -39 32 -43 31 -10 19 -39 -17 -43 -37 -4 -84 38 -84 75
0 32 -44 75 -72 71 -15 -2 -32 -24 -57 -71 -40 -76 -97 -139 -141 -157 -26
-11 -36 -9 -84 14 -30 15 -57 34 -60 43 -15 37 64 46 101 11 20 -19 25 -20 37
-7 47 48 71 257 41 352 -15 50 -16 63 -5 103 13 45 12 48 -9 66 -23 18 -86 24
-107 10 -6 -4 -22 -27 -34 -52 -12 -25 -43 -64 -68 -87 l-45 -41 26 -44 c14
-24 39 -56 56 -72 32 -31 40 -63 19 -84 -19 -19 -50 -14 -91 14 -52 35 -108
53 -187 60 l-66 7 -53 -47 c-36 -32 -60 -46 -81 -46 -32 0 -48 16 -31 33 27
27 5 22 -76 -19 -49 -23 -101 -46 -116 -49 -25 -5 -30 -2 -40 25 -8 21 -17 29
-27 26 -8 -2 -42 -14 -75 -25 -33 -11 -72 -22 -86 -25 -15 -3 -48 -22 -75 -41
-120 -87 -139 -92 -174 -48 -23 29 -23 28 27 60 16 10 11 14 -40 38 -32 15
-61 25 -64 22 -3 -3 3 -37 13 -75 14 -56 16 -75 6 -96 -10 -22 -16 -25 -65
-23 -44 2 -61 -3 -95 -26 -29 -19 -42 -34 -42 -51 0 -12 -9 -31 -21 -42 -20
-18 -22 -18 -67 -1 -87 33 -90 33 -54 -5 28 -30 31 -36 19 -53 -32 -42 -135
15 -169 94 -11 25 -36 62 -55 83 -20 20 -32 41 -29 47 11 17 69 13 118 -9 92
-40 214 -35 266 13 31 29 28 43 -20 78 -59 42 -215 119 -243 119 -13 0 -38 12
-56 28 -31 26 -38 27 -122 24 -49 -1 -98 0 -108 3 -29 9 -23 34 11 49 36 15
29 26 -15 26 -18 0 -42 9 -55 20 -30 26 -43 25 -35 -1 6 -18 4 -19 -13 -10
-11 6 -37 10 -57 8 -23 -1 -40 3 -42 11 -3 8 1 10 14 6 14 -5 15 -4 7 5 -14
15 -94 -7 -94 -26 0 -7 -11 -20 -25 -29 -25 -16 -65 -16 -110 2 -19 8 -20 7
-2 -19 17 -27 17 -27 -7 -27 -14 0 -28 -5 -31 -11 -4 -6 -12 -8 -19 -6 -7 3
-23 -1 -37 -9 -13 -7 -45 -13 -71 -14 l-48 0 6 -43 c7 -47 -4 -63 -53 -76 -20
-5 -30 -16 -37 -39 -5 -18 -14 -32 -21 -32 -7 0 -32 -16 -56 -35 -24 -19 -51
-35 -60 -35 -11 0 -14 -7 -11 -29 4 -27 1 -30 -47 -46 -28 -9 -51 -18 -51 -21
0 -2 9 -18 20 -36 27 -45 26 -89 -3 -116 -27 -25 -52 -27 -87 -7 -34 19 -38
19 -42 -7 -2 -13 -27 -40 -61 -66 -74 -56 -83 -79 -63 -153 9 -30 16 -77 16
-102 0 -42 3 -49 26 -58 37 -13 82 3 144 52 27 21 52 39 55 39 9 0 44 -77 80
-180 19 -57 41 -107 47 -111 6 -4 32 3 57 16 25 13 62 27 82 30 l37 7 -1 58
c0 66 19 105 58 120 15 6 23 15 19 24 -3 8 -1 17 5 21 18 11 13 34 -16 72 -21
28 -27 46 -26 78 3 86 45 145 134 191 47 24 59 39 59 77 0 35 35 82 75 101 40
19 78 15 108 -11 32 -29 20 -59 -51 -135 -107 -114 -112 -123 -112 -187 0 -64
25 -124 54 -129 10 -2 53 6 95 19 115 34 225 28 253 -15 21 -32 -12 -44 -156
-57 -61 -6 -117 -15 -123 -21 -20 -16 -15 -55 9 -88 17 -24 20 -35 12 -62 -12
-42 -38 -47 -74 -13 -23 22 -31 25 -48 16 -27 -14 -35 -43 -27 -92 7 -38 5
-42 -36 -80 -48 -45 -83 -57 -110 -40 -29 18 -48 14 -142 -31 -85 -40 -90 -41
-103 -24 -7 10 -15 24 -17 30 -3 8 -20 7 -62 -1 -65 -14 -90 -6 -120 41 -15
22 -15 29 -1 77 18 59 9 82 -22 63 -14 -10 -17 -28 -17 -115 l0 -104 -64 -13
c-35 -7 -79 -21 -96 -32 -18 -11 -39 -20 -47 -20 -10 0 -18 -14 -22 -39 -7
-44 -44 -81 -80 -81 -13 0 -42 -21 -70 -49 -47 -48 -137 -98 -155 -86 -5 3
-18 -11 -30 -30 -19 -34 -22 -35 -66 -29 -60 9 -62 -15 -3 -48 52 -28 94 -93
109 -169 10 -48 9 -61 -6 -93 -25 -53 -60 -68 -127 -56 -29 5 -95 11 -146 12
-112 4 -115 1 -108 -97 3 -38 0 -90 -6 -115 -27 -111 -6 -163 75 -187 27 -8
51 -22 58 -34 13 -25 26 -23 144 17 124 42 139 57 161 159 7 29 18 45 42 60
89 54 116 80 124 120 14 65 41 85 115 85 49 0 75 6 113 26 62 32 91 27 134
-24 78 -94 167 -172 219 -196 45 -20 58 -31 76 -69 15 -32 20 -53 15 -74 -7
-26 -6 -27 10 -14 14 11 17 27 14 75 -3 56 -1 61 17 60 11 -1 29 -5 40 -10 43
-17 -8 27 -76 67 -37 21 -80 52 -96 67 -32 33 -123 178 -123 198 0 7 11 26 25
41 l25 28 21 -27 c11 -16 27 -28 34 -28 8 0 29 -18 47 -41 18 -23 66 -68 107
-100 72 -58 121 -112 121 -133 0 -27 53 -119 91 -160 39 -43 76 -62 66 -33 -2
6 -12 11 -21 11 -21 -2 -21 15 1 23 19 8 55 -31 47 -52 -3 -8 -18 -17 -34 -20
-28 -6 -45 -29 -34 -46 9 -15 23 -11 70 21 24 17 44 38 44 47 0 8 -16 33 -36
55 -41 46 -44 83 -6 83 13 0 30 9 38 20 12 16 27 19 90 20 68 0 78 3 95 24 16
20 19 34 14 75 -5 45 -2 60 29 124 47 97 131 182 178 182 48 -1 69 -20 62 -57
-5 -24 -1 -34 17 -47 22 -15 89 -23 89 -10 0 3 -11 20 -25 36 -19 22 -23 34
-15 43 17 20 101 53 145 57 35 3 40 0 43 -20 2 -13 -6 -41 -17 -63 l-21 -41
33 -31 c18 -18 63 -58 100 -90 54 -47 67 -64 67 -87 0 -83 -127 -103 -275 -43
-91 36 -136 40 -186 14 -22 -12 -67 -28 -98 -36 -36 -10 -63 -24 -76 -40 -15
-18 -30 -25 -58 -25 -31 0 -38 -4 -43 -25 -10 -41 15 -151 39 -172 37 -33 101
-48 136 -33 25 10 43 10 95 -1 51 -10 74 -10 104 -1 56 17 71 15 77 -10 8 -33
-49 -249 -82 -310 -36 -67 -63 -78 -136 -55 -40 13 -61 14 -87 7 -60 -17 -96
-11 -256 42 -182 61 -187 60 -239 -32 -26 -46 -35 -55 -62 -58 -35 -4 -57 6
-188 84 -50 30 -113 60 -141 69 -28 8 -62 28 -78 44 -26 27 -28 34 -21 68 13
62 10 109 -9 138 -18 27 -20 27 -90 22 -39 -4 -120 -11 -181 -16 -87 -7 -140
-18 -255 -56 -182 -58 -228 -65 -254 -36 -11 12 -23 21 -27 21 -5 0 -20 -22
-34 -49 -14 -28 -50 -71 -84 -101 -66 -57 -86 -98 -76 -154 10 -51 -26 -116
-103 -183 -40 -35 -88 -94 -129 -155 -36 -55 -72 -102 -80 -105 -28 -11 -35
-59 -38 -251 -3 -168 -6 -202 -25 -263 l-23 -70 22 -27 c12 -15 29 -40 39 -55
9 -16 45 -68 80 -117 42 -59 65 -102 71 -133 4 -24 18 -58 30 -75 35 -50 118
-119 177 -148 l55 -27 75 17 c41 9 110 16 153 16 60 0 102 7 177 31 131 42
179 43 228 5 21 -15 42 -39 49 -53 11 -24 13 -25 83 -18 66 6 74 5 94 -15 20
-20 21 -29 18 -204 l-3 -184 33 -43 c63 -84 92 -133 98 -168 4 -20 20 -55 36
-78 24 -32 32 -59 41 -125 15 -117 13 -147 -17 -221 -14 -36 -35 -104 -46
-151 -23 -97 -23 -102 33 -237 26 -60 44 -130 61 -231 29 -169 56 -247 141
-418 76 -154 82 -174 55 -197 -26 -22 -25 -35 3 -61 48 -46 76 -49 204 -29
192 30 215 36 271 68 99 56 233 268 250 396 10 72 27 101 81 140 55 38 66 73
52 164 -7 39 -16 80 -22 91 -5 10 -8 27 -4 36 9 29 85 101 162 153 50 34 81
63 100 97 27 45 28 53 27 167 0 90 -5 131 -18 165 -18 45 -21 57 -50 183 -15
65 -15 71 5 130 40 119 151 273 263 365 41 34 93 85 115 114 75 100 186 322
210 423 7 28 22 60 33 73 12 12 18 22 15 22 -4 0 -68 -14 -142 -30 -74 -16
-150 -30 -169 -30 -46 0 -120 55 -124 93 -2 15 -7 27 -11 27 -5 0 -26 26 -47
58 -21 31 -62 87 -90 123 -29 36 -59 82 -67 101 -8 19 -27 44 -42 56 -30 24
-44 70 -45 147 -1 28 -7 66 -14 85 -42 109 -90 206 -144 295 -64 102 -77 150
-46 162 16 6 23 0 50 -44 11 -17 13 -16 23 11 l12 29 29 -28 c40 -38 97 -150
113 -221 11 -49 18 -59 38 -64 31 -7 69 -80 69 -135 1 -54 27 -108 87 -181 69
-83 81 -109 92 -206 11 -100 23 -133 52 -148 18 -10 43 -1 182 67 89 43 204
100 255 127 97 51 219 146 238 185 6 12 23 35 38 50 14 15 26 35 26 45 0 9 11
32 25 50 29 38 25 46 -46 94 -58 39 -95 83 -104 122 l-7 31 -21 -28 c-29 -38
-44 -49 -100 -79 -65 -34 -107 -30 -120 11 -6 17 -20 43 -33 58 -13 15 -28 45
-33 65 -6 20 -33 73 -61 117 -27 43 -50 85 -50 92 0 19 41 43 74 43 22 0 38
-10 65 -41 129 -148 172 -174 273 -162 46 5 48 4 68 -29 33 -56 59 -63 298
-77 l142 -8 53 -50 c29 -28 70 -56 92 -63 22 -7 48 -20 58 -29 18 -15 18 -16
-7 -36 l-26 -21 21 -23 c29 -30 60 -24 78 17 16 35 35 42 46 15 4 -10 11 -74
15 -143 8 -129 44 -278 78 -330 9 -14 22 -47 29 -73 15 -57 125 -279 138 -279
15 0 63 94 80 157 8 33 18 107 22 164 7 115 2 107 98 181 66 51 227 218 253
262 17 29 45 41 123 53 21 3 48 14 62 25 35 28 41 26 72 -22 15 -24 51 -74 79
-113 l51 -69 3 -88 c4 -84 5 -88 27 -88 13 0 42 16 66 36 55 45 63 37 83 -84
9 -52 22 -104 29 -115 7 -14 14 -83 17 -177 5 -154 6 -155 38 -204 17 -28 32
-62 32 -77 0 -64 119 -249 160 -249 14 0 12 35 -5 108 -19 78 -37 115 -88 172
-21 25 -50 68 -64 97 -13 28 -33 59 -44 69 -24 22 -24 36 2 120 29 95 40 106
103 98 64 -8 93 -25 101 -62 3 -16 21 -44 40 -62 22 -21 36 -46 40 -72 4 -21
12 -37 17 -36 6 2 51 37 100 78 l89 75 -6 85 c-10 131 -22 165 -102 282 -72
106 -73 109 -59 137 17 33 112 121 131 121 6 0 20 -9 30 -20 23 -25 41 -25 55
-1 5 11 24 23 42 26 18 4 49 15 68 25 20 10 62 23 94 29 33 6 78 22 102 36 55
32 151 138 175 193 10 23 36 68 57 100 60 89 60 89 7 127 -20 14 -19 15 9 38
l29 24 -31 6 c-40 8 -44 43 -7 57 14 5 25 13 25 18 0 4 -22 43 -50 87 -27 44
-50 84 -50 91 0 25 63 95 112 123 l51 30 -76 -1 c-87 -1 -147 19 -167 57 -18
33 7 65 97 125 114 76 156 65 109 -29 -15 -28 -23 -51 -19 -51 3 0 21 16 39
35 33 37 68 44 117 26 45 -17 56 -37 45 -75 -10 -33 -9 -36 31 -74 40 -38 41
-40 41 -105 0 -54 3 -67 15 -67 28 0 93 39 100 59 4 12 -12 65 -39 136 -54
136 -62 109 84 266 95 102 129 125 145 99 3 -5 20 -10 38 -10 77 0 279 278
336 464 31 101 38 222 16 269 -19 41 -51 55 -83 38 -34 -18 -86 -13 -105 10
-10 11 -31 25 -47 31 -20 7 -30 17 -30 30 0 41 287 290 395 343 52 26 60 27
89 15 51 -22 130 -24 191 -5 30 10 65 15 77 12 13 -3 48 -13 78 -22 76 -22
123 -17 125 13 2 31 74 102 148 146 50 29 72 36 115 36 59 0 76 -18 48 -49 -9
-10 -16 -28 -16 -40 0 -22 1 -22 38 7 20 16 52 37 70 46 18 9 32 24 32 35 0
39 73 80 86 47 12 -31 -72 -146 -106 -146 -5 0 -58 -47 -118 -104 -60 -57
-123 -111 -140 -120 -20 -10 -40 -35 -59 -73 -25 -52 -28 -68 -27 -153 1 -85
21 -199 43 -237 4 -8 22 7 49 43 23 30 54 60 67 66 17 8 25 19 25 37 0 47 46
101 87 101 20 0 23 5 23 43 0 52 24 90 51 82 23 -8 24 4 4 31 -8 10 -15 33
-15 50 0 16 -5 35 -12 42 -8 8 -7 22 6 56 21 55 61 96 94 96 14 0 33 7 43 16
16 15 132 44 175 44 12 0 33 -9 47 -20 14 -11 29 -20 35 -20 5 0 42 23 83 50
41 28 108 65 149 82 63 27 86 32 149 31 l73 -1 -5 35 c-8 46 -52 113 -75 113
-26 0 -66 45 -58 66 7 17 9 17 98 -5 54 -13 81 4 90 58 4 25 12 49 17 54 16
16 39 0 46 -33 6 -27 10 -31 28 -25 61 19 76 18 112 -14 20 -17 42 -31 49 -31
7 0 30 -13 51 -30 41 -32 68 -39 59 -15 -3 8 3 30 15 48 19 32 33 41 94 66 43
17 32 37 -38 70 -85 40 -113 40 -126 1 -18 -50 -59 -35 -59 20 0 30 -57 87
-124 125 -101 56 -225 92 -398 115 -87 11 -169 25 -184 30 l-27 11 6 -48 c5
-50 -5 -83 -26 -83 -7 0 -37 12 -67 26 -49 24 -72 28 -216 35 -195 9 -230 20
-240 74 -10 53 -31 58 -216 51 -153 -6 -158 -6 -179 15 -12 12 -36 25 -53 28
-23 5 -36 17 -52 46 -18 34 -25 40 -52 39 -17 -1 -61 -16 -97 -34 -78 -38
-101 -31 -66 19 12 16 18 32 13 35 -15 9 -253 9 -262 0 -5 -5 -10 -27 -12 -48
-3 -43 -10 -48 -77 -64 -37 -8 -53 -7 -92 9 -46 17 -50 18 -94 2 -43 -16 -47
-16 -76 1 -17 10 -32 16 -33 14 -2 -1 -11 -20 -21 -40 -22 -48 -52 -50 -116
-10 -56 37 -154 141 -143 152 5 5 24 12 43 17 l34 9 -26 29 c-24 29 -28 30
-109 29 -66 0 -93 -5 -129 -23 -40 -20 -58 -23 -138 -20 -76 3 -95 7 -106 22
-28 38 -151 44 -217 11 -25 -13 -28 -12 -45 14 -10 15 -26 44 -36 65 -19 42
-17 41 -89 26 l-53 -12 47 -12 c51 -13 109 -46 91 -52 -6 -2 -28 5 -49 16 -21
12 -52 21 -68 21 l-30 0 29 -30 c16 -16 26 -32 23 -35 -11 -12 -150 -55 -175
-55 -43 0 -73 11 -73 26 0 8 19 26 43 40 23 15 71 47 107 71 36 23 76 43 90
43 29 0 104 33 115 49 4 7 2 18 -5 26 -9 10 -7 20 5 39 17 26 17 26 -12 26
-16 0 -39 7 -51 16 -28 19 -57 20 -151 4 -71 -12 -75 -11 -142 15 -73 30 -82
42 -48 63 12 8 17 17 13 22 -15 13 -68 20 -89 11z m-2547 -2565 c4 -34 -13
-56 -37 -49 -23 6 -63 -31 -55 -51 3 -8 1 -17 -5 -21 -19 -11 -11 -39 24 -84
19 -24 35 -53 35 -65 0 -33 11 -66 22 -66 5 0 18 10 29 23 l19 22 20 -24 c27
-31 25 -51 -4 -51 -57 0 -73 -27 -34 -54 15 -11 23 -27 24 -48 0 -18 4 -54 8
-80 6 -43 5 -48 -19 -64 -38 -25 -123 -24 -161 3 -56 40 -60 60 -29 152 l27
81 -30 34 c-33 37 -67 121 -85 204 -9 44 -9 58 3 79 30 52 173 111 225 93 12
-4 21 -18 23 -34z"/>
<path d="M4010 9270 c0 -15 51 -37 105 -45 64 -9 91 -26 104 -68 13 -37 44
-57 91 -57 16 0 49 -6 72 -14 74 -24 98 -26 278 -13 l174 12 7 32 c3 18 13 40
20 50 12 14 10 14 -14 -2 -22 -14 -61 -19 -205 -27 -257 -13 -342 1 -363 61
-12 35 -16 37 -144 61 -115 23 -125 24 -125 10z"/>
<path d="M12230 9244 c-42 -16 -101 -28 -165 -34 -65 -6 -124 -18 -168 -35
-38 -14 -96 -28 -128 -32 -59 -6 -79 -16 -59 -28 19 -12 10 -33 -35 -78 -25
-26 -45 -50 -45 -55 0 -5 17 -16 38 -25 l37 -15 -51 -1 c-53 -1 -77 -18 -117
-83 -22 -35 -21 -38 4 -38 33 0 56 -17 67 -50 11 -29 13 -30 76 -30 l66 0 -35
33 c-55 51 -55 81 -1 154 60 80 153 165 207 190 24 11 67 24 94 28 71 10 291
84 318 106 l22 18 -30 0 c-16 0 -59 -11 -95 -25z"/>
<path d="M3380 9218 c0 -24 -5 -50 -10 -58 -14 -23 -80 -17 -147 13 -65 29
-166 52 -183 42 -15 -9 -12 -58 4 -81 13 -16 18 -17 33 -6 35 24 46 25 87 11
50 -17 52 -38 6 -62 l-35 -18 55 5 c30 2 95 16 144 30 48 14 97 26 107 26 28
0 89 27 89 39 0 6 -15 11 -33 11 -36 0 -55 16 -75 63 -18 43 -42 35 -42 -15z"/>
<path d="M15857 9207 c-26 -21 -30 -64 -7 -87 24 -24 53 -25 91 -3 26 16 32
16 79 1 27 -9 50 -14 50 -12 0 3 -7 18 -15 34 -8 16 -12 36 -9 44 8 21 -15 20
-38 -1 -19 -17 -21 -17 -51 1 -48 28 -83 36 -100 23z"/>
<path d="M2698 9030 c-24 -18 -28 -29 -28 -71 0 -48 -23 -89 -50 -89 -20 0 -9
-18 14 -24 13 -3 31 -17 40 -31 23 -35 71 -33 116 5 19 17 42 30 51 30 9 0 24
11 33 25 17 26 110 79 128 73 6 -2 -4 -14 -23 -26 -24 -15 -29 -22 -16 -22 24
0 67 44 67 68 0 35 -36 55 -118 64 -42 4 -102 11 -132 14 -47 5 -59 3 -82 -16z"/>
<path d="M4190 9023 c-14 -2 -40 -9 -59 -15 l-33 -10 4 -64 c4 -71 18 -95 43
-74 8 7 15 21 15 32 0 11 13 26 32 36 18 9 48 32 67 50 28 27 32 35 20 43 -14
9 -44 10 -89 2z"/>
<path d="M3910 9005 c-14 -8 -42 -19 -62 -25 -36 -10 -37 -12 -23 -33 24 -37
5 -54 -47 -40 l-43 11 45 -38 c57 -50 136 -94 145 -80 3 5 19 10 34 10 29 0
51 16 51 38 0 7 -12 29 -27 48 -23 30 -25 39 -16 67 17 56 -4 72 -57 42z"/>
<path d="M3547 8994 c-4 -4 -7 -15 -7 -24 0 -10 -15 -23 -39 -32 -32 -13 -40
-22 -46 -49 -16 -80 -30 -89 -64 -40 -12 16 -42 39 -67 52 l-47 22 -17 -23
c-17 -23 -18 -23 -45 -6 -27 18 -27 17 -55 -9 -36 -35 -54 -25 -47 26 3 26 1
39 -7 39 -6 0 -45 -19 -86 -43 -82 -46 -88 -59 -51 -122 l17 -30 110 0 c111 0
144 -9 144 -40 0 -17 -26 -23 -150 -31 l-105 -7 46 -16 c25 -9 69 -31 98 -50
49 -32 56 -33 119 -29 37 3 94 16 127 28 120 45 130 46 203 27 37 -10 84 -26
104 -36 l37 -18 -15 29 c-17 33 -13 43 30 69 17 10 28 19 25 19 -34 0 -117 24
-132 38 -26 23 -64 99 -72 145 -5 23 -2 49 5 68 12 29 3 59 -13 43z"/>
<path d="M4425 8951 c-42 -25 -85 -78 -85 -104 0 -30 43 -118 67 -140 17 -14
53 -19 229 -27 218 -10 265 -17 351 -51 28 -11 73 -26 99 -33 61 -15 79 -40
58 -81 -9 -18 -10 -25 -3 -17 7 6 21 12 31 12 17 0 26 -13 57 -93 10 -25 15
-27 43 -22 45 8 75 -13 59 -43 -17 -32 -47 -37 -77 -13 -35 28 -65 26 -98 -4
-27 -25 -27 -27 -12 -51 20 -30 19 -31 -92 -37 -86 -5 -112 -16 -112 -48 0
-24 31 -32 77 -20 80 23 161 1 224 -58 17 -17 46 -35 65 -41 32 -11 47 -30 23
-30 -5 0 -8 -4 -5 -9 3 -4 32 -11 64 -13 37 -4 81 -17 120 -37 75 -38 79 -38
53 -5 -28 36 -26 48 9 61 24 9 30 17 30 40 0 36 -17 61 -97 145 -34 36 -63 75
-63 86 0 12 14 29 35 42 40 25 50 22 125 -45 28 -25 56 -45 63 -45 22 0 40 18
42 42 1 14 12 29 31 38 16 8 31 16 34 18 11 8 -62 62 -84 62 -13 0 -40 13 -61
30 -20 16 -54 32 -74 35 -94 15 -137 64 -93 106 12 10 19 26 16 34 -8 21 -125
75 -162 75 -66 0 -79 21 -34 57 22 19 24 22 9 23 -11 0 -31 -7 -47 -16 -25
-16 -30 -15 -75 1 -29 12 -50 27 -55 41 -25 65 -158 86 -180 28 -8 -19 -17
-24 -44 -24 -19 0 -38 5 -41 10 -3 6 -21 10 -39 10 -43 0 -58 19 -60 77 -1 47
-2 48 -35 51 -46 5 -87 -15 -100 -46 -20 -55 -22 -90 -6 -128 13 -32 13 -40 2
-51 -35 -36 -78 33 -76 124 l1 58 12 -58 c12 -64 26 -67 26 -5 0 95 -68 137
-145 89z"/>
<path d="M4065 8765 c-17 -16 -25 -35 -25 -58 0 -40 15 -57 51 -57 40 0 53
-22 39 -65 -14 -42 -56 -95 -76 -95 -7 0 -29 8 -49 17 -34 16 -38 16 -100 -6
-133 -47 -260 -38 -333 25 -34 29 -48 34 -90 34 -28 0 -63 -5 -79 -11 -27 -10
-27 -11 -9 -25 11 -8 29 -14 40 -14 20 0 20 0 0 15 -18 14 -18 14 7 15 15 0
32 -7 39 -15 10 -12 6 -18 -24 -36 -31 -18 -36 -26 -36 -58 0 -20 -7 -46 -15
-57 -15 -19 -15 -18 -37 8 -13 15 -31 38 -41 52 -24 34 -86 50 -167 42 -108
-11 -167 26 -107 67 22 15 22 15 2 30 -31 24 -50 26 -84 10 -33 -16 -33 -17
-148 32 -72 30 -179 43 -210 26 -17 -9 -34 -6 -86 14 -74 27 -58 32 -212 -57
-89 -51 -151 -76 -162 -64 -12 12 11 39 71 81 69 48 57 59 -19 16 -58 -33 -93
-39 -114 -18 -6 6 -3 -8 8 -33 10 -25 22 -66 26 -92 6 -40 4 -49 -10 -54 -25
-10 -54 25 -63 75 -4 24 -14 47 -22 51 -28 14 -255 79 -298 86 -23 3 -55 12
-70 19 -15 7 -75 16 -134 19 -59 4 -126 13 -150 22 -36 13 -49 13 -81 3 -30
-10 -42 -10 -55 -1 -32 23 -81 42 -109 42 -16 0 -39 7 -52 16 -19 14 -26 14
-48 3 -18 -10 -29 -10 -42 -2 -15 9 -26 8 -55 -8 -20 -10 -43 -19 -51 -19 -9
0 -25 -9 -36 -19 -11 -10 -41 -24 -66 -30 -29 -8 -61 -27 -92 -56 -27 -25 -56
-45 -66 -45 -24 0 -105 -39 -105 -50 0 -5 26 -30 57 -56 50 -41 116 -77 176
-97 24 -9 21 -43 -5 -61 -28 -20 -56 -20 -101 -1 -49 20 -72 19 -140 -9 l-58
-23 35 -21 c23 -14 36 -29 36 -42 0 -27 36 -40 114 -40 48 0 69 5 89 20 32 25
44 25 57 1 16 -31 12 -48 -21 -86 -36 -40 -77 -65 -110 -65 -30 0 -89 -62 -89
-94 0 -35 34 -101 62 -120 12 -9 36 -16 53 -16 21 0 43 -10 65 -30 46 -41 120
-64 181 -56 l49 7 0 -30 c0 -75 -51 -129 -192 -202 -104 -53 -122 -70 -47 -44
150 53 419 245 419 300 0 12 7 29 17 36 9 8 25 33 35 56 28 63 77 89 117 64
12 -8 9 -16 -17 -46 -31 -34 -43 -85 -22 -85 19 0 91 40 95 53 2 7 6 24 9 38
5 22 40 49 65 49 5 0 25 -14 46 -30 40 -32 117 -57 252 -83 45 -8 121 -32 168
-52 64 -28 95 -36 120 -32 38 6 60 -12 94 -80 22 -45 70 -87 118 -103 45 -16
76 -79 76 -152 -1 -58 -1 -59 38 -79 21 -10 39 -22 39 -25 0 -3 -9 -18 -19
-33 l-20 -27 30 4 c43 6 62 -13 54 -58 -6 -37 -6 -37 37 -48 60 -16 181 -121
217 -189 16 -30 14 -68 -4 -83 -13 -10 -19 -9 -36 6 -16 15 -22 16 -29 5 -11
-19 -24 -407 -16 -474 9 -71 49 -155 78 -166 17 -6 27 -22 36 -57 17 -66 77
-152 131 -188 24 -16 46 -37 49 -48 2 -11 13 -18 28 -18 27 0 39 -20 79 -126
14 -38 41 -92 60 -120 29 -41 34 -57 29 -83 -6 -28 -1 -37 44 -85 31 -33 55
-68 61 -93 13 -48 89 -123 123 -123 23 1 23 1 -4 24 -14 13 -39 48 -54 77 -15
30 -39 73 -55 95 -39 57 -129 252 -129 279 0 65 68 48 98 -25 19 -45 148 -245
234 -363 129 -176 122 -164 123 -224 1 -53 4 -58 43 -93 41 -37 284 -167 362
-195 33 -12 50 -12 85 -3 42 11 46 11 102 -26 74 -47 251 -136 272 -136 48 0
141 -127 141 -192 0 -28 1 -28 24 -13 23 15 25 14 56 -24 22 -29 43 -44 73
-51 23 -6 55 -16 70 -22 25 -10 31 -8 58 18 25 24 33 26 56 18 57 -20 99 -164
82 -276 -6 -34 -22 -68 -54 -114 -61 -85 -104 -179 -112 -244 -6 -48 -4 -53
22 -74 l27 -22 -36 -32 c-20 -17 -36 -34 -36 -37 0 -2 27 -67 59 -143 32 -75
80 -198 106 -272 26 -74 53 -146 60 -160 17 -31 57 -69 165 -152 47 -36 98
-80 114 -97 l29 -30 -7 -98 c-35 -522 -57 -804 -67 -837 -6 -22 -27 -76 -47
-120 -30 -69 -37 -98 -45 -191 -12 -154 -12 -203 2 -260 14 -58 7 -204 -12
-244 -15 -33 -43 -39 -52 -12 -9 28 -19 26 -33 -4 -15 -34 -15 -35 6 -35 19 0
92 -71 111 -108 13 -24 9 -27 -34 -34 -18 -3 -21 -13 -25 -103 -3 -55 -10
-108 -14 -117 -7 -15 -3 -18 21 -18 55 0 138 -78 118 -110 -3 -5 -1 -10 4 -10
6 0 22 18 35 39 14 22 37 51 51 65 14 14 25 35 25 46 0 27 22 70 49 94 12 11
21 27 21 36 0 9 23 44 50 78 28 34 50 66 50 72 0 5 -13 16 -30 25 -38 20 -50
43 -50 98 0 47 15 68 63 86 22 9 27 17 27 45 0 52 16 85 45 92 31 8 31 9 0 46
-33 39 -34 88 -2 88 12 0 39 5 59 10 30 9 41 19 59 58 12 26 27 50 33 55 12 8
52 19 139 37 122 25 146 84 77 188 -22 33 -40 65 -40 71 0 17 26 13 70 -9 51
-26 73 -25 130 6 72 39 134 126 221 308 43 89 48 116 34 192 -7 41 -7 42 45
83 29 23 74 54 99 68 25 15 58 37 73 49 15 12 54 28 85 34 94 18 101 23 138
104 56 122 66 169 74 339 7 133 11 162 27 182 10 12 41 49 67 81 57 71 107
167 114 223 8 57 -11 95 -66 130 -25 17 -60 44 -76 61 -32 34 -67 45 -170 55
-85 8 -129 26 -175 69 -82 77 -110 82 -161 30 -44 -46 -87 -65 -125 -55 -41
11 -42 35 -2 51 44 18 68 39 68 62 0 27 -21 22 -70 -15 -94 -70 -104 -77 -113
-68 -13 13 36 95 90 148 l44 44 -26 30 c-16 20 -25 43 -25 65 0 26 -10 45 -40
78 -49 53 -110 83 -185 92 -37 5 -71 17 -99 36 -60 39 -204 191 -212 224 l-7
26 -91 -7 c-74 -5 -95 -3 -111 9 -11 8 -31 16 -45 16 -32 1 -101 32 -119 53
-19 24 -27 21 -41 -12 -6 -16 -18 -32 -26 -35 -9 -3 -14 -20 -14 -45 0 -52
-17 -61 -47 -27 -28 33 -29 62 -3 101 39 59 19 61 -45 5 -25 -22 -57 -40 -69
-40 -30 0 -39 -12 -66 -80 -12 -30 -25 -59 -30 -64 -6 -6 -29 6 -57 28 -43 34
-52 37 -88 31 -126 -19 -124 -20 -156 11 -65 62 -71 82 -67 216 l3 122 -28 14
c-16 8 -65 16 -109 19 -47 4 -85 12 -93 20 -17 16 -10 67 17 138 11 27 22 81
25 119 l6 69 -57 -5 c-73 -6 -112 -40 -122 -105 -8 -58 -33 -73 -126 -79 -62
-5 -78 -2 -105 15 -77 49 -132 175 -135 310 -1 42 4 86 10 98 7 12 12 47 12
78 0 31 5 65 10 75 6 11 41 37 78 60 79 46 104 49 217 20 43 -11 91 -20 107
-20 28 0 28 0 11 26 -17 26 -16 27 11 51 28 24 32 24 130 18 110 -7 135 -18
173 -74 12 -17 24 -50 28 -74 15 -92 73 -181 106 -161 15 9 7 55 -37 215 -20
72 -33 141 -30 154 5 18 111 146 228 275 13 14 22 29 20 34 -2 5 4 16 13 26
14 15 14 21 0 60 -17 49 -19 103 -5 131 16 29 29 23 50 -23 15 -35 19 -38 19
-19 1 35 41 109 82 151 27 28 48 39 80 44 66 10 74 17 60 56 -6 18 -11 41 -11
50 0 23 68 100 88 100 9 0 44 12 77 26 125 55 162 65 192 53 l28 -11 -32 -13
c-43 -18 -83 -59 -83 -85 0 -26 2 -26 57 14 27 18 71 45 98 59 28 14 60 37 72
51 14 15 29 23 38 20 9 -4 15 0 15 9 0 30 -18 27 -66 -13 -27 -22 -52 -40 -57
-40 -24 0 -47 23 -47 47 0 21 -3 24 -12 15 -21 -21 -41 -13 -85 30 -50 49 -55
75 -15 84 48 10 52 13 52 34 0 17 -6 20 -42 20 -53 0 -109 -25 -167 -74 -44
-37 -70 -43 -79 -18 -6 20 113 132 175 165 46 24 69 29 181 37 108 7 147 14
240 45 107 36 112 39 118 69 7 41 -7 96 -28 110 -12 7 -36 5 -87 -8 -38 -10
-74 -15 -80 -11 -33 20 12 70 73 82 l40 8 -70 43 c-39 23 -78 42 -87 42 -17 0
-67 65 -67 88 0 7 -18 39 -40 69 -22 31 -43 72 -46 92 -8 45 -21 71 -36 71 -6
0 -33 -20 -59 -45 -35 -33 -56 -45 -79 -45 -17 0 -39 -6 -50 -12 -17 -11 -24
-8 -54 21 -19 19 -40 46 -46 62 -10 23 -9 32 10 56 26 36 20 53 -28 75 -20 10
-56 33 -80 52 -49 41 -96 56 -170 56 -42 0 -58 -5 -77 -24 -34 -34 -47 -91
-33 -139 10 -31 9 -43 -4 -65 -8 -15 -13 -32 -11 -39 2 -6 -1 -14 -6 -18 -19
-11 -12 -40 21 -90 39 -59 43 -123 11 -177 -32 -54 -42 -95 -51 -206 -15 -168
-53 -185 -165 -72 l-70 69 7 84 7 84 -66 6 c-76 7 -126 27 -241 98 -46 28 -95
52 -109 52 -31 0 -47 18 -60 71 -10 38 -14 41 -50 46 -33 4 -43 11 -57 40 -35
70 -15 123 92 244 42 48 70 88 70 101 0 31 41 55 93 55 33 0 54 8 86 30 23 17
39 35 36 40 -3 5 -31 17 -61 26 -29 8 -54 19 -54 24 0 18 39 30 94 30 72 0 86
-14 86 -90 0 -47 -4 -63 -21 -79 l-21 -20 33 -20 c49 -30 67 -26 108 20 l37
42 41 -22 c50 -25 73 -27 73 -5 0 27 -66 81 -126 104 -68 25 -91 40 -115 76
-23 36 -17 44 36 44 53 0 145 33 170 60 17 18 16 21 -9 65 -22 36 -25 49 -16
65 25 47 -27 90 -109 90 l-41 0 6 -42 c4 -38 0 -49 -31 -91 -20 -26 -43 -51
-52 -54 -21 -8 -51 32 -58 77 -9 54 -33 100 -51 100 -10 0 -32 -18 -51 -40
-19 -21 -40 -37 -47 -34 -7 3 -17 21 -22 42 -8 33 -26 50 -69 65 -6 2 -5 14 4
30 12 23 12 29 -4 54 -44 67 -98 81 -140 38z m436 -1818 c19 -12 51 -48 72
-80 42 -64 50 -69 127 -87 94 -22 139 -54 91 -67 -20 -5 -41 -42 -41 -72 0
-10 -3 -20 -6 -24 -10 -10 -84 75 -84 97 0 27 -9 40 -38 55 -21 11 -27 10 -48
-10 -29 -27 -59 -105 -69 -176 -7 -51 -19 -72 -33 -58 -3 3 -7 34 -9 68 -1 34
-5 73 -8 86 -8 33 19 70 71 92 24 11 44 24 44 29 0 28 -120 60 -225 60 l-80 1
40 21 c22 12 60 36 84 54 52 40 67 42 112 11z"/>
<path d="M3902 8627 c-28 -29 -28 -31 4 -62 32 -32 71 -29 128 10 44 30 52 8
9 -23 -23 -17 -26 -23 -15 -34 19 -19 42 0 76 61 25 46 26 52 10 48 -64 -19
-95 -19 -134 2 -50 26 -52 26 -78 -2z"/>
<path d="M7958 8337 c-74 -8 -88 -13 -88 -28 0 -24 -64 -61 -130 -75 -30 -7
-45 -13 -33 -13 32 -1 73 -22 73 -37 0 -21 59 -46 109 -47 69 0 248 68 280
106 10 13 8 19 -13 39 -13 12 -26 32 -28 43 -4 24 -42 27 -170 12z"/>
<path d="M8677 7727 c-26 -23 -56 -64 -67 -90 -19 -43 -20 -49 -6 -69 11 -16
12 -26 5 -41 -15 -26 15 -67 61 -82 26 -9 37 -20 44 -43 12 -41 0 -80 -27 -93
-12 -6 -29 -26 -38 -44 l-16 -34 39 -6 c21 -4 41 -11 44 -16 9 -15 -17 -40
-66 -62 -54 -24 -33 -35 35 -18 24 6 72 11 105 11 36 0 76 7 96 16 19 9 34 17
34 19 0 1 7 19 15 39 l16 37 -34 14 c-23 9 -38 25 -47 47 -33 89 -49 116 -97
166 -29 30 -53 59 -53 65 0 7 9 27 20 45 27 45 26 48 -20 44 -54 -5 -61 16
-24 71 44 63 46 67 36 67 -5 0 -30 -19 -55 -43z"/>
<path d="M8465 7444 c-9 -10 -14 -25 -12 -36 4 -14 -3 -22 -29 -33 -38 -16
-39 -18 -22 -44 9 -14 8 -23 -5 -42 -19 -26 -23 -79 -7 -79 19 0 125 58 143
78 22 25 38 88 30 120 -5 21 -48 52 -72 52 -5 0 -17 -7 -26 -16z"/>
<path d="M16070 7403 c0 -16 -9 -48 -20 -72 -24 -52 -25 -80 -5 -145 10 -33
15 -93 15 -182 0 -138 9 -184 35 -184 26 0 28 27 6 63 -22 36 -28 110 -12 136
8 12 14 13 37 3 14 -7 29 -11 31 -8 3 3 -6 29 -20 58 -32 66 -49 159 -47 257
3 96 2 101 -10 101 -5 0 -10 -12 -10 -27z"/>
<path d="M6025 7096 c-44 -19 -145 -115 -145 -137 0 -27 35 -59 65 -59 14 0
50 9 80 19 30 11 55 16 56 13 1 -4 0 -23 -1 -43 -2 -46 15 -58 39 -28 16 20
22 22 44 12 26 -12 37 -8 37 14 0 7 -11 13 -24 13 -23 0 -24 3 -19 35 5 29 1
39 -26 66 -29 29 -36 31 -77 25 -24 -3 -44 -3 -44 0 0 3 11 19 25 36 14 16 25
34 25 39 0 11 2 11 -35 -5z"/>
<path d="M16012 6748 c-7 -7 -12 -30 -12 -52 0 -48 -6 -57 -42 -73 -23 -10
-28 -19 -28 -46 0 -37 32 -87 56 -87 8 0 14 10 14 24 0 22 4 25 39 23 28 -1
46 6 70 26 18 15 39 27 46 27 22 0 55 41 55 67 0 20 -5 23 -43 23 -35 0 -51 7
-91 40 -56 46 -49 43 -64 28z"/>
<path d="M15943 6442 c-7 -4 -19 -41 -26 -81 -17 -85 -28 -101 -58 -82 -26 16
-51 -1 -31 -21 16 -16 15 -44 -3 -62 -13 -13 -20 -13 -42 -3 -23 10 -28 9 -37
-8 -27 -47 -62 -72 -111 -79 -59 -9 -96 -27 -149 -72 -40 -34 -69 -43 -81 -24
-3 6 -10 10 -16 10 -16 0 -9 -34 16 -75 17 -28 24 -55 25 -90 0 -97 35 -94 86
6 19 38 38 69 42 70 4 0 19 2 34 3 26 2 68 31 68 48 0 5 -17 16 -37 26 -35 15
-36 16 -14 20 32 5 64 -13 85 -50 l18 -30 27 26 c36 35 72 46 145 46 l62 0 27
113 c16 61 37 130 47 152 22 46 24 70 9 114 -15 43 -55 63 -86 43z"/>
<path d="M4643 5280 c-18 -11 -33 -22 -33 -25 0 -2 18 -14 40 -25 26 -13 40
-27 40 -40 0 -11 4 -20 9 -20 19 0 22 21 7 45 -22 34 -6 38 56 14 104 -41 187
-90 190 -112 4 -32 46 -43 99 -26 68 22 60 43 -37 99 -179 102 -303 132 -371
90z"/>
<path d="M14962 4998 c-25 -32 -34 -187 -11 -214 7 -9 36 -26 64 -38 54 -24
105 -84 105 -124 0 -12 5 -22 10 -22 6 0 10 9 10 20 0 24 8 25 32 3 10 -9 18
-12 18 -7 0 5 -45 58 -100 118 -55 59 -100 113 -100 120 0 7 14 27 30 44 33
35 39 72 14 96 -19 19 -58 21 -72 4z"/>
<path d="M15155 4415 c-32 -16 -53 -21 -59 -15 -6 6 -13 10 -17 10 -9 0 -53
-70 -47 -75 2 -3 18 1 35 7 40 15 59 6 66 -32 6 -28 10 -31 39 -28 46 4 76 59
63 114 -6 20 -14 39 -20 40 -5 1 -32 -8 -60 -21z"/>
<path d="M14665 4194 c-55 -52 -119 -103 -142 -115 -24 -11 -48 -32 -55 -46
-14 -28 -26 -37 -70 -53 -40 -14 -38 -67 7 -156 50 -101 79 -125 162 -134 37
-4 78 -11 89 -15 13 -4 25 -2 28 4 4 6 16 11 28 11 19 0 20 4 14 48 -5 39 -3
54 12 73 10 13 34 53 53 88 18 35 42 66 52 69 16 4 16 6 2 28 -8 13 -15 33
-15 45 0 14 -10 24 -30 32 -16 6 -30 16 -30 21 0 6 21 32 47 58 l47 48 -25 26
c-13 14 -35 34 -49 44 l-25 18 -100 -94z"/>
<path d="M13707 4197 c4 -7 31 -43 61 -82 56 -72 92 -134 92 -158 0 -8 17 -34
39 -58 21 -24 50 -70 65 -101 31 -66 161 -210 184 -206 10 2 26 31 40 68 34
92 33 103 -5 111 -46 9 -108 62 -132 113 -11 25 -66 92 -121 151 -55 59 -100
111 -100 116 0 11 -45 34 -93 47 -28 8 -35 8 -30 -1z"/>
<path d="M14970 3950 c-18 -5 -40 -16 -46 -25 -31 -43 -58 -245 -34 -260 6 -3
10 -24 10 -46 0 -36 23 -99 35 -99 3 0 2 43 -1 95 -5 70 -4 98 6 110 12 14 15
14 31 -1 11 -10 24 -36 30 -58 23 -94 43 -119 55 -71 11 44 -6 93 -46 141 -22
25 -40 49 -40 53 0 19 31 32 67 29 21 -2 40 2 43 7 3 6 -21 11 -60 13 -69 3
-90 13 -90 43 0 35 56 59 132 56 43 -1 71 2 79 11 10 10 -2 12 -61 11 -41 -1
-91 -5 -110 -9z"/>
<path d="M15496 3852 c-7 -11 22 -32 72 -51 37 -16 39 -24 11 -52 -32 -32 -21
-55 25 -51 28 3 56 -5 104 -29 70 -34 162 -117 162 -145 0 -9 -11 -32 -26 -51
l-25 -33 31 0 c18 0 62 -13 98 -29 37 -16 82 -32 99 -36 29 -6 34 -3 45 20 14
31 56 55 96 55 22 0 39 -11 66 -40 20 -22 36 -46 36 -54 0 -18 62 -47 114 -53
l41 -5 -47 44 c-57 52 -88 103 -88 144 0 20 -9 39 -27 56 -64 60 -246 158
-389 210 l-85 30 -27 -25 c-15 -13 -39 -32 -53 -41 -26 -16 -27 -16 -57 14
-19 18 -32 43 -34 63 -2 27 -9 34 -38 43 -61 20 -98 25 -104 16z"/>
<path d="M14205 3530 c-19 -31 61 -65 212 -91 64 -11 132 -27 151 -34 80 -34
59 18 -26 63 -46 25 -72 32 -113 32 -30 0 -86 9 -124 20 -80 23 -91 24 -100
10z"/>
<path d="M15530 3222 c0 -12 -17 -34 -40 -52 -22 -17 -40 -40 -40 -49 0 -10
-10 -30 -21 -45 -16 -20 -19 -30 -10 -39 18 -18 13 -44 -11 -50 -22 -6 -111 7
-131 20 -7 4 -18 15 -25 25 -17 24 -49 23 -57 -2 -3 -10 -24 -33 -46 -50 -31
-25 -39 -38 -39 -64 0 -51 -19 -61 -52 -29 l-28 27 0 -54 c0 -51 -3 -56 -44
-95 -25 -23 -60 -48 -78 -57 -182 -86 -273 -136 -299 -165 -37 -43 -38 -87 -4
-133 26 -35 34 -93 14 -106 -6 -3 -22 6 -35 22 -35 44 -29 13 16 -74 49 -93
90 -249 95 -357 2 -44 4 -83 4 -87 2 -14 70 -48 96 -48 15 0 54 16 86 35 33
21 83 41 116 47 79 14 108 26 148 58 43 34 68 43 176 64 108 20 136 20 196 0
70 -24 127 -69 158 -125 14 -27 30 -49 35 -49 6 0 21 21 34 48 40 77 51 89 70
73 21 -18 20 -39 -3 -92 -23 -50 -21 -57 10 -35 27 19 49 6 49 -30 0 -13 20
-53 45 -90 25 -36 45 -72 45 -79 0 -38 126 -61 166 -30 28 22 40 19 80 -21
l36 -37 44 47 c32 33 52 46 72 46 41 0 58 19 71 80 6 30 32 105 56 165 51 123
79 244 96 416 12 119 8 169 -13 169 -19 0 -107 63 -113 80 -3 8 -25 40 -50 70
-25 30 -45 63 -45 72 0 10 -18 29 -39 43 -65 40 -104 122 -120 252 -7 59 -16
82 -44 121 -20 26 -44 76 -53 110 -10 34 -21 62 -26 62 -15 0 -40 -70 -51
-140 -12 -82 -51 -205 -77 -248 -21 -34 -21 -34 -48 -16 -66 42 -164 118 -187
146 -30 36 -27 73 12 152 23 46 25 84 3 71 -6 -4 -18 -1 -26 6 -8 7 -39 16
-67 20 -29 4 -64 10 -79 14 -24 6 -28 4 -28 -13z"/>
<path d="M11346 3153 c-3 -3 -6 -16 -6 -28 0 -41 -55 -110 -121 -152 -35 -22
-71 -49 -80 -59 -29 -33 -40 -84 -33 -151 6 -55 3 -70 -21 -125 -26 -58 -27
-66 -17 -115 14 -69 47 -142 67 -149 9 -4 36 1 60 10 39 15 46 23 63 69 11 29
39 137 62 242 23 104 49 207 56 228 17 48 18 122 3 183 -12 45 -21 59 -33 47z"/>
<path d="M17570 1764 c0 -3 18 -35 40 -71 53 -87 59 -123 31 -180 -22 -45 -21
-63 4 -63 19 0 45 -39 45 -68 0 -43 33 -21 55 37 12 31 28 57 39 61 11 4 24
24 32 48 l12 42 -33 0 c-28 0 -35 5 -44 31 -9 26 -13 29 -30 20 -31 -17 -40
-13 -56 24 -25 62 -95 149 -95 119z"/>
<path d="M16180 1348 c0 -16 31 -100 43 -115 5 -7 27 -13 48 -13 37 0 38 1 56
56 17 55 17 57 -2 70 -24 18 -145 19 -145 2z"/>
<path d="M17545 1338 c-15 -12 -34 -37 -42 -57 -8 -19 -47 -67 -87 -105 -94
-94 -165 -199 -121 -182 9 3 38 -3 66 -14 37 -15 55 -17 69 -10 30 16 50 52
50 90 0 27 11 48 45 90 25 30 45 64 45 76 0 12 11 29 25 38 27 18 34 63 13 84
-17 17 -32 15 -63 -10z"/>
<path d="M5340 486 c0 -54 -8 -66 -47 -66 -56 0 -34 -24 33 -36 32 -6 68 -16
80 -24 23 -14 75 -3 82 18 5 15 -116 142 -135 142 -8 0 -13 -12 -13 -34z"/>
</g>
</svg>
